<mxfile host="app.diagrams.net" modified="2021-11-20T11:08:06.739Z" agent="5.0 (Windows NT 10.0; Win64; x64) AppleWebKit/537.36 (KHTML, like Gecko) Chrome/96.0.4664.45 Safari/537.36" etag="yFBoW1x3PD_e3GnFDRZq" version="15.8.3" type="github">
  <diagram id="ojrI9sNC-19SHQx3Z9b1" name="Page-1">
    <mxGraphModel dx="1422" dy="-403" grid="1" gridSize="10" guides="1" tooltips="1" connect="1" arrows="1" fold="1" page="1" pageScale="1" pageWidth="827" pageHeight="1169" math="0" shadow="0">
      <root>
        <mxCell id="0" />
        <mxCell id="1" parent="0" />
        <mxCell id="7Ec1_xB0QXu3VKuR0h8p-1" value="" style="shape=image;html=1;verticalAlign=top;verticalLabelPosition=bottom;labelBackgroundColor=#ffffff;imageAspect=0;aspect=fixed;image=https://cdn0.iconfinder.com/data/icons/font-awesome-brands-vol-2/512/raspberry-pi-128.png" parent="1" vertex="1">
          <mxGeometry x="344" y="1520" width="80" height="80" as="geometry" />
        </mxCell>
        <mxCell id="7Ec1_xB0QXu3VKuR0h8p-2" value="Raspbery pi" style="text;html=1;strokeColor=none;fillColor=none;align=center;verticalAlign=middle;whiteSpace=wrap;rounded=0;" parent="1" vertex="1">
          <mxGeometry x="326" y="1480" width="96" height="30" as="geometry" />
        </mxCell>
        <mxCell id="7Ec1_xB0QXu3VKuR0h8p-3" value="" style="aspect=fixed;perimeter=ellipsePerimeter;html=1;align=center;shadow=0;dashed=0;spacingTop=3;image;image=img/lib/active_directory/web_server.svg;" parent="1" vertex="1">
          <mxGeometry x="620" y="1380" width="60" height="75" as="geometry" />
        </mxCell>
        <mxCell id="7Ec1_xB0QXu3VKuR0h8p-4" value="Site web vitrine" style="text;html=1;strokeColor=none;fillColor=none;align=center;verticalAlign=middle;whiteSpace=wrap;rounded=0;" parent="1" vertex="1">
          <mxGeometry x="132.62" y="1455" width="60" height="30" as="geometry" />
        </mxCell>
        <mxCell id="7Ec1_xB0QXu3VKuR0h8p-5" value="VPS" style="text;html=1;strokeColor=none;fillColor=none;align=center;verticalAlign=middle;whiteSpace=wrap;rounded=0;" parent="1" vertex="1">
          <mxGeometry x="620" y="1450" width="60" height="30" as="geometry" />
        </mxCell>
        <mxCell id="7Ec1_xB0QXu3VKuR0h8p-6" value="" style="sketch=0;aspect=fixed;pointerEvents=1;shadow=0;dashed=0;html=1;strokeColor=none;labelPosition=center;verticalLabelPosition=bottom;verticalAlign=top;align=center;shape=mxgraph.mscae.enterprise.website_generic;fillColor=#7D7D7D;" parent="1" vertex="1">
          <mxGeometry x="119.99999999999997" y="1380" width="85.23" height="75" as="geometry" />
        </mxCell>
        <mxCell id="7Ec1_xB0QXu3VKuR0h8p-7" value="" style="endArrow=none;html=1;rounded=0;exitX=0.845;exitY=0.573;exitDx=0;exitDy=0;exitPerimeter=0;strokeWidth=3;" parent="1" source="7Ec1_xB0QXu3VKuR0h8p-6" target="7Ec1_xB0QXu3VKuR0h8p-3" edge="1">
          <mxGeometry width="50" height="50" relative="1" as="geometry">
            <mxPoint x="390" y="1650" as="sourcePoint" />
            <mxPoint x="440" y="1600" as="targetPoint" />
          </mxGeometry>
        </mxCell>
        <mxCell id="7Ec1_xB0QXu3VKuR0h8p-8" value="" style="dashed=0;outlineConnect=0;html=1;align=center;labelPosition=center;verticalLabelPosition=bottom;verticalAlign=top;shape=mxgraph.weblogos.arduino;fillColor=#36868D;strokeColor=none" parent="1" vertex="1">
          <mxGeometry x="450" y="1660" width="67.4" height="32" as="geometry" />
        </mxCell>
        <mxCell id="7Ec1_xB0QXu3VKuR0h8p-9" value="" style="shape=image;html=1;verticalAlign=top;verticalLabelPosition=bottom;labelBackgroundColor=#ffffff;imageAspect=0;aspect=fixed;image=https://cdn4.iconfinder.com/data/icons/essential-app-2/16/volume-sound-speaker-lound-128.png" parent="1" vertex="1">
          <mxGeometry x="349" y="1750" width="70" height="70" as="geometry" />
        </mxCell>
        <mxCell id="7Ec1_xB0QXu3VKuR0h8p-10" value="" style="endArrow=none;html=1;rounded=0;strokeWidth=3;" parent="1" source="7Ec1_xB0QXu3VKuR0h8p-8" target="7Ec1_xB0QXu3VKuR0h8p-1" edge="1">
          <mxGeometry width="50" height="50" relative="1" as="geometry">
            <mxPoint x="390" y="1650" as="sourcePoint" />
            <mxPoint x="440" y="1600" as="targetPoint" />
          </mxGeometry>
        </mxCell>
        <mxCell id="7Ec1_xB0QXu3VKuR0h8p-11" value="" style="endArrow=none;html=1;rounded=0;strokeWidth=3;" parent="1" source="7Ec1_xB0QXu3VKuR0h8p-9" target="7Ec1_xB0QXu3VKuR0h8p-8" edge="1">
          <mxGeometry width="50" height="50" relative="1" as="geometry">
            <mxPoint x="390" y="1830" as="sourcePoint" />
            <mxPoint x="440" y="1600" as="targetPoint" />
          </mxGeometry>
        </mxCell>
        <mxCell id="7Ec1_xB0QXu3VKuR0h8p-12" value="" style="endArrow=none;html=1;rounded=0;strokeWidth=3;" parent="1" source="7Ec1_xB0QXu3VKuR0h8p-9" target="7Ec1_xB0QXu3VKuR0h8p-1" edge="1">
          <mxGeometry width="50" height="50" relative="1" as="geometry">
            <mxPoint x="402.69528301886794" y="1830" as="sourcePoint" />
            <mxPoint x="460.3835849056604" y="1722" as="targetPoint" />
          </mxGeometry>
        </mxCell>
        <mxCell id="7Ec1_xB0QXu3VKuR0h8p-13" value="" style="sketch=0;aspect=fixed;pointerEvents=1;shadow=0;dashed=0;html=1;strokeColor=none;labelPosition=center;verticalLabelPosition=bottom;verticalAlign=top;align=center;shape=mxgraph.mscae.enterprise.website_generic;fillColor=#7D7D7D;" parent="1" vertex="1">
          <mxGeometry x="82.62" y="1540" width="85.23" height="75" as="geometry" />
        </mxCell>
        <mxCell id="7Ec1_xB0QXu3VKuR0h8p-14" value="interface web" style="text;html=1;strokeColor=none;fillColor=none;align=center;verticalAlign=middle;whiteSpace=wrap;rounded=0;" parent="1" vertex="1">
          <mxGeometry x="95.24000000000001" y="1510" width="60" height="30" as="geometry" />
        </mxCell>
        <mxCell id="7Ec1_xB0QXu3VKuR0h8p-15" value="" style="endArrow=none;html=1;rounded=0;entryX=0.845;entryY=0.587;entryDx=0;entryDy=0;entryPerimeter=0;strokeWidth=3;" parent="1" source="7Ec1_xB0QXu3VKuR0h8p-1" target="7Ec1_xB0QXu3VKuR0h8p-13" edge="1">
          <mxGeometry width="50" height="50" relative="1" as="geometry">
            <mxPoint x="390" y="1650" as="sourcePoint" />
            <mxPoint x="440" y="1600" as="targetPoint" />
          </mxGeometry>
        </mxCell>
        <mxCell id="7Ec1_xB0QXu3VKuR0h8p-16" value="" style="shape=image;html=1;verticalAlign=top;verticalLabelPosition=bottom;labelBackgroundColor=#ffffff;imageAspect=0;aspect=fixed;image=https://cdn4.iconfinder.com/data/icons/social-media-2146/512/28_social-128.png" parent="1" vertex="1">
          <mxGeometry x="630" y="1535" width="80" height="80" as="geometry" />
        </mxCell>
        <mxCell id="7Ec1_xB0QXu3VKuR0h8p-17" value="application android" style="text;html=1;strokeColor=none;fillColor=none;align=center;verticalAlign=middle;whiteSpace=wrap;rounded=0;" parent="1" vertex="1">
          <mxGeometry x="640" y="1630" width="60" height="30" as="geometry" />
        </mxCell>
        <mxCell id="7Ec1_xB0QXu3VKuR0h8p-18" value="" style="endArrow=none;html=1;rounded=0;strokeWidth=3;" parent="1" source="7Ec1_xB0QXu3VKuR0h8p-1" target="7Ec1_xB0QXu3VKuR0h8p-16" edge="1">
          <mxGeometry width="50" height="50" relative="1" as="geometry">
            <mxPoint x="422.01935000000003" y="1372.975" as="sourcePoint" />
            <mxPoint x="660.0033660117133" y="1368.0617347188818" as="targetPoint" />
          </mxGeometry>
        </mxCell>
        <mxCell id="7Ec1_xB0QXu3VKuR0h8p-19" value="Arduino" style="text;html=1;strokeColor=none;fillColor=none;align=center;verticalAlign=middle;whiteSpace=wrap;rounded=0;" parent="1" vertex="1">
          <mxGeometry x="453.7" y="1700" width="60" height="30" as="geometry" />
        </mxCell>
        <mxCell id="7Ec1_xB0QXu3VKuR0h8p-20" value="Ampli" style="text;html=1;strokeColor=none;fillColor=none;align=center;verticalAlign=middle;whiteSpace=wrap;rounded=0;" parent="1" vertex="1">
          <mxGeometry x="354" y="1820" width="60" height="30" as="geometry" />
        </mxCell>
      </root>
    </mxGraphModel>
  </diagram>
</mxfile>
